<svg width="77" height="76" viewBox="0 0 77 76" fill="none" xmlns="http://www.w3.org/2000/svg">
<path opacity="0.06" d="M55.4036 0H21.6277C10.08 0 0.71875 9.36124 0.71875 20.9089V54.6848C0.71875 66.2325 10.08 75.5938 21.6277 75.5938H55.4036C66.9513 75.5938 76.3125 66.2325 76.3125 54.6848V20.9089C76.3125 9.36124 66.9513 0 55.4036 0Z" fill="#0089FF"/>
<path d="M38.5157 63.5374C52.7317 63.5374 64.2561 52.0131 64.2561 37.797C64.2561 23.581 52.7317 12.0566 38.5157 12.0566C24.2996 12.0566 12.7753 23.581 12.7753 37.797C12.7753 52.0131 24.2996 63.5374 38.5157 63.5374Z" fill="#1B76FF"/>
<path fill-rule="evenodd" clip-rule="evenodd" d="M25.1058 32.7031H29.7516V50.8643H25.1058C24.4063 50.8643 23.8392 50.3242 23.8392 49.658V33.9094C23.8392 33.2432 24.4063 32.7031 25.1058 32.7031Z" stroke="white" stroke-width="1.60838" stroke-linecap="round" stroke-linejoin="round"/>
<path fill-rule="evenodd" clip-rule="evenodd" d="M51.7796 47.4639C51.4855 49.7274 49.9732 50.8641 47.2848 50.8641H33.2172C31.3058 50.8641 29.7516 49.4012 29.7516 47.6023V32.7248C34.2128 32.2899 36.4434 30.7325 36.4434 26.5446V24.5378C36.4434 22.4225 38.2439 20.7078 40.4649 20.7078C41.3113 20.7078 42.1361 20.962 42.8219 21.4345C43.7671 22.0869 44.3693 23.3224 44.3693 25.1015V30.9107C44.3693 31.4049 45.2058 31.8102 46.0424 31.8102H50.5298C52.4202 31.8102 53.9535 33.2335 53.9955 35.0028C54.0235 36.1823 53.2849 39.8334 51.7796 47.4639Z" stroke="white" stroke-width="1.60838" stroke-linecap="round" stroke-linejoin="round"/>
</svg>
