<svg width="76" height="76" viewBox="0 0 76 76" fill="none" xmlns="http://www.w3.org/2000/svg">
<path opacity="0.06" d="M55.0286 0H21.2527C9.70499 0 0.34375 9.36124 0.34375 20.9089V54.6848C0.34375 66.2325 9.70499 75.5938 21.2527 75.5938H55.0286C66.5763 75.5938 75.9375 66.2325 75.9375 54.6848V20.9089C75.9375 9.36124 66.5763 0 55.0286 0Z" fill="#FF6F35"/>
<path d="M38.1407 63.5374C52.3567 63.5374 63.8811 52.0131 63.8811 37.797C63.8811 23.581 52.3567 12.0566 38.1407 12.0566C23.9246 12.0566 12.4003 23.581 12.4003 37.797C12.4003 52.0131 23.9246 63.5374 38.1407 63.5374Z" fill="#FFCD1D"/>
<path d="M38.1406 21.5791V54.0148" stroke="white" stroke-width="2.41257" stroke-linecap="round" stroke-linejoin="round"/>
<path d="M45.5124 27.4766H34.4548C33.0862 27.4766 31.7737 28.0202 30.8059 28.988C29.8382 29.9556 29.2946 31.2682 29.2946 32.6367C29.2946 34.0053 29.8382 35.3178 30.8059 36.2856C31.7737 37.2532 33.0862 37.797 34.4548 37.797H41.8265C43.195 37.797 44.5076 38.3406 45.4753 39.3084C46.4431 40.276 46.9867 41.5885 46.9867 42.9572C46.9867 44.3258 46.4431 45.6383 45.4753 46.606C44.5076 47.5737 43.195 48.1174 41.8265 48.1174H29.2946" stroke="white" stroke-width="2.41257" stroke-linecap="round" stroke-linejoin="round"/>
</svg>
