<svg width="77" height="76" viewBox="0 0 77 76" fill="none" xmlns="http://www.w3.org/2000/svg">
<g clip-path="url(#clip0_5_3)">
<g clip-path="url(#clip1_5_3)">
<path opacity="0.06" d="M55.9787 -0.265625H22.0213C10.4115 -0.265625 1 9.14592 1 20.7557V54.7131C1 66.3228 10.4115 75.7344 22.0213 75.7344H55.9787C67.5885 75.7344 77 66.3228 77 54.7131V20.7557C77 9.14592 67.5885 -0.265625 55.9787 -0.265625Z" fill="#F6CA4F"/>
<path d="M39.0001 63.6134C53.2925 63.6134 64.8788 52.0271 64.8788 37.7347C64.8788 23.4422 53.2925 11.856 39.0001 11.856C24.7076 11.856 13.1213 23.4422 13.1213 37.7347C13.1213 52.0271 24.7076 63.6134 39.0001 63.6134Z" fill="#FF6D35"/>
<path d="M48.5506 49.4073H29.4495C27.1149 49.4073 25.2048 47.4972 25.2048 45.1626V30.3062C25.2048 27.9716 27.1149 26.0615 29.4495 26.0615H48.5506C50.8852 26.0615 52.7953 27.9716 52.7953 30.3062V45.1626C52.7953 47.4972 50.8852 49.4073 48.5506 49.4073Z" stroke="white" stroke-width="2" stroke-miterlimit="10" stroke-linecap="round" stroke-linejoin="round"/>
<path d="M25.2048 31.3672L39 39.8565L52.7953 31.3672" stroke="white" stroke-width="2" stroke-miterlimit="10" stroke-linecap="round" stroke-linejoin="round"/>
</g>
</g>
<defs>
<clipPath id="clip0_5_3">
<rect width="75.5938" height="75.5938" fill="white" transform="translate(0.71875)"/>
</clipPath>
<clipPath id="clip1_5_3">
<rect width="76" height="76" fill="white" transform="translate(1 -0.265625)"/>
</clipPath>
</defs>
</svg>
